<?xml version="1.0" encoding="UTF-8"?>
<svg version="1.1" xmlns="http://www.w3.org/2000/svg" width="512" height="512">
<path d="M0 0 C73.92 0 147.84 0 224 0 C224 5.28 224 10.56 224 16 C229.28 16 234.56 16 240 16 C240 68.8 240 121.6 240 176 C234.72 176 229.44 176 224 176 C224 181.28 224 186.56 224 192 C176.48 192 128.96 192 80 192 C80 255.36 80 318.72 80 384 C74.72 384 69.44 384 64 384 C64 389.28 64 394.56 64 400 C42.88 400 21.76 400 0 400 C0 394.72 0 389.44 0 384 C-5.28 384 -10.56 384 -16 384 C-16 262.56 -16 141.12 -16 16 C-10.72 16 -5.44 16 0 16 C0 10.72 0 5.44 0 0 Z M96 80 C96 90.56 96 101.12 96 112 C111.84 112 127.68 112 144 112 C144 101.44 144 90.88 144 80 C128.16 80 112.32 80 96 80 Z " fill="#99E550" transform="translate(144,60)"/>
<path d="M0 0 C5.28 0 10.56 0 16 0 C16 36.96 16 73.92 16 112 C21.28 112 26.56 112 32 112 C32 122.56 32 133.12 32 144 C37.28 144 42.56 144 48 144 C48 217.92 48 291.84 48 368 C26.88 368 5.76 368 -16 368 C-16 278.24 -16 188.48 -16 96 C-10.72 96 -5.44 96 0 96 C0 64.32 0 32.64 0 0 Z " fill="#76428A" transform="translate(160,92)"/>
<path d="M0 0 C31.68 0 63.36 0 96 0 C96 3.3 96 6.6 96 10 C99.3 10 102.6 10 106 10 C106 19.9 106 29.8 106 40 C77.62 40 49.24 40 20 40 C20 60.46 20 80.92 20 102 C38.48 102 56.96 102 76 102 C76 99.69 76 97.38 76 95 C60.82 95 45.64 95 30 95 C30 84.11 30 73.22 30 62 C55.08 62 80.16 62 106 62 C106 83.78 106 105.56 106 128 C102.7 128 99.4 128 96 128 C96 131.3 96 134.6 96 138 C64.32 138 32.64 138 0 138 C0 134.7 0 131.4 0 128 C-3.3 128 -6.6 128 -10 128 C-10 89.06 -10 50.12 -10 10 C-6.7 10 -3.4 10 0 10 C0 6.7 0 3.4 0 0 Z " fill="#FFFFFF" transform="translate(242,298)"/>
<path d="M0 0 C42.24 0 84.48 0 128 0 C128 31.68 128 63.36 128 96 C85.76 96 43.52 96 0 96 C0 64.32 0 32.64 0 0 Z M48 32 C48 42.56 48 53.12 48 64 C63.84 64 79.68 64 96 64 C96 53.44 96 42.88 96 32 C80.16 32 64.32 32 48 32 Z " fill="#FFFFFF" transform="translate(192,108)"/>
<path d="M0 0 C5.28 0 10.56 0 16 0 C16 36.96 16 73.92 16 112 C21.28 112 26.56 112 32 112 C32 138.4 32 164.8 32 192 C26.72 192 21.44 192 16 192 C16 207.84 16 223.68 16 240 C10.72 240 5.44 240 0 240 C0 271.68 0 303.36 0 336 C-5.28 336 -10.56 336 -16 336 C-16 256.8 -16 177.6 -16 96 C-10.72 96 -5.44 96 0 96 C0 64.32 0 32.64 0 0 Z " fill="#5FCDE4" transform="translate(160,92)"/>
<path d="M0 0 C52.8 0 105.6 0 160 0 C160 36.96 160 73.92 160 112 C165.28 112 170.56 112 176 112 C176 117.28 176 122.56 176 128 C123.2 128 70.4 128 16 128 C16 122.72 16 117.44 16 112 C10.72 112 5.44 112 0 112 C0 75.04 0 38.08 0 0 Z M16 16 C16 47.68 16 79.36 16 112 C58.24 112 100.48 112 144 112 C144 80.32 144 48.64 144 16 C101.76 16 59.52 16 16 16 Z " fill="#323C39" transform="translate(176,92)"/>
<path d="M0 0 C5.28 0 10.56 0 16 0 C16 121.44 16 242.88 16 368 C10.72 368 5.44 368 0 368 C0 246.56 0 125.12 0 0 Z " fill="#000000" transform="translate(128,76)"/>
<path d="M0 0 C52.8 0 105.6 0 160 0 C160 5.28 160 10.56 160 16 C112.48 16 64.96 16 16 16 C16 79.36 16 142.72 16 208 C10.72 208 5.44 208 0 208 C0 139.36 0 70.72 0 0 Z " fill="#000000" transform="translate(208,236)"/>
<path d="M0 0 C68.64 0 137.28 0 208 0 C208 5.28 208 10.56 208 16 C144.64 16 81.28 16 16 16 C16 47.68 16 79.36 16 112 C10.72 112 5.44 112 0 112 C0 75.04 0 38.08 0 0 Z " fill="#663931" transform="translate(144,76)"/>
<path d="M0 0 C3.3 0 6.6 0 10 0 C10 9.9 10 19.8 10 30 C-18.38 30 -46.76 30 -76 30 C-76 50.46 -76 70.92 -76 92 C-57.52 92 -39.04 92 -20 92 C-20 89.69 -20 87.38 -20 85 C-35.18 85 -50.36 85 -66 85 C-66 74.11 -66 63.22 -66 52 C-40.92 52 -15.84 52 10 52 C10 73.78 10 95.56 10 118 C6.7 118 3.4 118 0 118 C0 99.52 0 81.04 0 62 C-18.48 62 -36.96 62 -56 62 C-56 66.29 -56 70.58 -56 75 C-40.82 75 -25.64 75 -10 75 C-10 83.91 -10 92.82 -10 102 C-35.08 102 -60.16 102 -86 102 C-86 74.94 -86 47.88 -86 20 C-57.62 20 -29.24 20 0 20 C0 13.4 0 6.8 0 0 Z " fill="#000000" transform="translate(338,308)"/>
<path d="M0 0 C5.28 0 10.56 0 16 0 C16 79.2 16 158.4 16 240 C10.72 240 5.44 240 0 240 C0 160.8 0 81.6 0 0 Z " fill="#5B6EE1" transform="translate(144,188)"/>
<path d="M0 0 C5.28 0 10.56 0 16 0 C16 31.68 16 63.36 16 96 C26.56 96 37.12 96 48 96 C48 106.56 48 117.12 48 128 C26.88 128 5.76 128 -16 128 C-16 117.44 -16 106.88 -16 96 C-10.72 96 -5.44 96 0 96 C0 64.32 0 32.64 0 0 Z " fill="#D95763" transform="translate(160,332)"/>
<path d="M0 0 C26.4 0 52.8 0 80 0 C80 21.12 80 42.24 80 64 C53.6 64 27.2 64 0 64 C0 42.88 0 21.76 0 0 Z M16 16 C16 26.56 16 37.12 16 48 C31.84 48 47.68 48 64 48 C64 37.44 64 26.88 64 16 C48.16 16 32.32 16 16 16 Z " fill="#000000" transform="translate(224,124)"/>
<path d="M0 0 C73.92 0 147.84 0 224 0 C224 5.28 224 10.56 224 16 C150.08 16 76.16 16 0 16 C0 10.72 0 5.44 0 0 Z " fill="#000000" transform="translate(144,60)"/>
<path d="M0 0 C17.82 0 35.64 0 54 0 C54 26.07 54 52.14 54 79 C36.51 79 19.02 79 1 79 C1 73.72 1 68.44 1 63 C12.55 63 24.1 63 36 63 C36 57.39 36 51.78 36 46 C26.76 46 17.52 46 8 46 C8 41.05 8 36.1 8 31 C16.91 31 25.82 31 35 31 C35 26.38 35 21.76 35 17 C23.45 17 11.9 17 0 17 C0 11.39 0 5.78 0 0 Z " fill="#000000" transform="translate(353,360)"/>
<path d="M0 0 C52.8 0 105.6 0 160 0 C160 5.28 160 10.56 160 16 C107.2 16 54.4 16 0 16 C0 10.72 0 5.44 0 0 Z " fill="#DF7126" transform="translate(192,220)"/>
<path d="M0 0 C52.8 0 105.6 0 160 0 C160 5.28 160 10.56 160 16 C107.2 16 54.4 16 0 16 C0 10.72 0 5.44 0 0 Z " fill="#8F563B" transform="translate(192,204)"/>
<path d="M0 0 C5.28 0 10.56 0 16 0 C16 52.8 16 105.6 16 160 C10.72 160 5.44 160 0 160 C0 107.2 0 54.4 0 0 Z " fill="#000000" transform="translate(368,76)"/>
<path d="M0 0 C5.28 0 10.56 0 16 0 C16 47.52 16 95.04 16 144 C10.72 144 5.44 144 0 144 C0 96.48 0 48.96 0 0 Z " fill="#D77BBA" transform="translate(176,284)"/>
<path d="M0 0 C15.84 0 31.68 0 48 0 C48 5.28 48 10.56 48 16 C37.44 16 26.88 16 16 16 C16 47.68 16 79.36 16 112 C10.72 112 5.44 112 0 112 C0 75.04 0 38.08 0 0 Z " fill="#FBF236" transform="translate(144,76)"/>
<path d="M0 0 C5.28 0 10.56 0 16 0 C16 36.96 16 73.92 16 112 C10.72 112 5.44 112 0 112 C0 75.04 0 38.08 0 0 Z " fill="#CBDBFC" transform="translate(336,92)"/>
<path d="M0 0 C5.28 0 10.56 0 16 0 C16 36.96 16 73.92 16 112 C10.72 112 5.44 112 0 112 C0 75.04 0 38.08 0 0 Z " fill="#696A6A" transform="translate(176,92)"/>
<path d="M0 0 C5.28 0 10.56 0 16 0 C16 31.68 16 63.36 16 96 C10.72 96 5.44 96 0 96 C0 64.32 0 32.64 0 0 Z " fill="#3F3F74" transform="translate(320,108)"/>
<path d="M0 0 C5.28 0 10.56 0 16 0 C16 31.68 16 63.36 16 96 C10.72 96 5.44 96 0 96 C0 64.32 0 32.64 0 0 Z " fill="#CBDBFC" transform="translate(192,108)"/>
<path d="M0 0 C5.28 0 10.56 0 16 0 C16 26.4 16 52.8 16 80 C10.72 80 5.44 80 0 80 C0 53.6 0 27.2 0 0 Z " fill="#5B6EE1" transform="translate(176,204)"/>
<path d="M0 0 C3.3 0 6.6 0 10 0 C10 38.94 10 77.88 10 118 C6.7 118 3.4 118 0 118 C0 79.06 0 40.12 0 0 Z " fill="#000000" transform="translate(232,308)"/>
<path d="M0 0 C21.12 0 42.24 0 64 0 C64 5.28 64 10.56 64 16 C42.88 16 21.76 16 0 16 C0 10.72 0 5.44 0 0 Z " fill="#000000" transform="translate(144,444)"/>
<path d="M0 0 C21.12 0 42.24 0 64 0 C64 5.28 64 10.56 64 16 C42.88 16 21.76 16 0 16 C0 10.72 0 5.44 0 0 Z " fill="#AC3232" transform="translate(144,428)"/>
<path d="M0 0 C14.19 0 28.38 0 43 0 C43 22.44 43 44.88 43 68 C29.14 68 15.28 68 1 68 C1 66.02 1 64.04 1 62 C12.88 62 24.76 62 37 62 C37 53.42 37 44.84 37 36 C27.76 36 18.52 36 9 36 C9 34.35 9 32.7 9 31 C17.91 31 26.82 31 36 31 C36 22.75 36 14.5 36 6 C24.12 6 12.24 6 0 6 C0 4.02 0 2.04 0 0 Z " fill="#639BFF" transform="translate(358,365)"/>
<path d="M0 0 C31.68 0 63.36 0 96 0 C96 3.3 96 6.6 96 10 C64.32 10 32.64 10 0 10 C0 6.7 0 3.4 0 0 Z " fill="#000000" transform="translate(242,426)"/>
<path d="M0 0 C31.68 0 63.36 0 96 0 C96 3.3 96 6.6 96 10 C64.32 10 32.64 10 0 10 C0 6.7 0 3.4 0 0 Z " fill="#000000" transform="translate(242,298)"/>
</svg>
